<svg viewBox="0 0 24 24" fill="currentColor" xmlns="http://www.w3.org/2000/svg">
  <path d="M20.447 20.452h-3.554v-5.569c0-1.328-.475-2.236-1.986-2.236-1.081 0-1.722.735-2.004 1.448-.103.25-.129.598-.129.946v5.411h-3.554V8.994h3.554v1.594c.49-.759 1.368-1.84 3.322-1.84 2.422 0 4.239 1.583 4.239 4.986v7.718zM5.337 7.433a2.062 2.062 0 110-4.124 2.062 2.062 0 010 4.124zm1.782 13.019H3.555V8.994h3.564v11.458zM22.225 0H1.771C.794 0 0 .774 0 1.729v20.542C0 23.227.794 24 1.771 24h20.451C23.2 24 24 23.227 24 22.271V1.729C24 .774 23.2 0 22.222 0h.003z" fill="white"/>
</svg>